HIERARCHY
ROOT Hips
{
  OFFSET 3.92544 6.39728 0
  CHANNELS 6 Xposition Yposition Zposition Zrotation Xrotation Yrotation
  JOINT BN_Spine_01
  {
    OFFSET 5.06197 -0.168311 0
    CHANNELS 6 Xposition Yposition Zposition Zrotation Xrotation Yrotation
    JOINT BN_Spine_02
    {
      OFFSET 14.8952 0 0
      CHANNELS 6 Xposition Yposition Zposition Zrotation Xrotation Yrotation
      JOINT BN_Spine_03
      {
        OFFSET 14.3786 0 0
        CHANNELS 6 Xposition Yposition Zposition Zrotation Xrotation Yrotation
        JOINT BN__Neck_01
        {
          OFFSET 15.3325 0 0
          CHANNELS 6 Xposition Yposition Zposition Zrotation Xrotation Yrotation
          JOINT BN__Neck_02
          {
            OFFSET 11.0839 0 0
            CHANNELS 6 Xposition Yposition Zposition Zrotation Xrotation Yrotation
            JOINT BN__Neck_R_01
            {
              OFFSET 3.85383 1.1973 3.491
              CHANNELS 6 Xposition Yposition Zposition Zrotation Xrotation Yrotation
              End Site
              {
                OFFSET 0 0 0
              }
            }
            JOINT BN__Neck_L_01
            {
              OFFSET 3.85383 1.1973 -3.49098
              CHANNELS 6 Xposition Yposition Zposition Zrotation Xrotation Yrotation
              End Site
              {
                OFFSET 0 0 0
              }
            }
            JOINT BN_Head_01
            {
              OFFSET 9.67523 0 0
              CHANNELS 6 Xposition Yposition Zposition Zrotation Xrotation Yrotation
              JOINT BN_Mouth_01
              {
                OFFSET 1.08197 -0.588672 0
                CHANNELS 6 Xposition Yposition Zposition Zrotation Xrotation Yrotation
                JOINT BN_Tongue_01
                {
                  OFFSET 2.17792 0.065941 0
                  CHANNELS 6 Xposition Yposition Zposition Zrotation Xrotation Yrotation
                  JOINT BN_Tongue_02
                  {
                    OFFSET 3.80658 -0.000201226 0
                    CHANNELS 6 Xposition Yposition Zposition Zrotation Xrotation Yrotation
                    End Site
                    {
                      OFFSET 0 0 0
                    }
                  }
                }
              }
            }
          }
        }
      }
    }
  }
  JOINT BN_Tail_01
  {
    OFFSET 4.67587 -0.164094 0
    CHANNELS 6 Xposition Yposition Zposition Zrotation Xrotation Yrotation
    JOINT BN_Tail_02
    {
      OFFSET 13.1147 2.52724e-005 0
      CHANNELS 6 Xposition Yposition Zposition Zrotation Xrotation Yrotation
      JOINT BN_Tail_03
      {
        OFFSET 13.4995 9.10759e-005 0
        CHANNELS 6 Xposition Yposition Zposition Zrotation Xrotation Yrotation
        JOINT BN_Tail_04
        {
          OFFSET 13.2851 0 0
          CHANNELS 6 Xposition Yposition Zposition Zrotation Xrotation Yrotation
          JOINT BN_Tail_05
          {
            OFFSET 14.6528 0.000106812 0
            CHANNELS 6 Xposition Yposition Zposition Zrotation Xrotation Yrotation
            JOINT BN_Tail_06
            {
              OFFSET 13.1048 0 0
              CHANNELS 6 Xposition Yposition Zposition Zrotation Xrotation Yrotation
              JOINT BN_Tail_07
              {
                OFFSET 11.869 0.000113964 0
                CHANNELS 6 Xposition Yposition Zposition Zrotation Xrotation Yrotation
                End Site
                {
                  OFFSET 0 0 0
                }
              }
            }
          }
        }
      }
    }
  }
}
MOTION
Frames:	4
Frame Time:	0.0333333
5.04398e-029 4 0 0 0 -0 4.98182 -0.165647 -1.73346e-006 4.24686 0.0641029 25.5889 14.6588 4.79767e-006 -3.45548e-005 41.2289 -22.3453 -16.9182 14.1493 -5.10205e-005 1.66468e-005 32.6943 14.3328 -29.8794 15.0872 -9.48489e-005 -8.38279e-005 -12.7347 -10.3947 13.7931 10.9062 -3.6184e-005 -2.92142e-005 -49.9418 -3.65187 10.6763 4.26699 2.03302 2.44965 -84.7301 -19.5061 -78.8347 3.90883 1.90766 -1.75314 93.6157 -21.5228 94.4973 9.5201 4.56861e-005 3.77784e-005 -37.3565 2.24622 3.03361 1.06454 -0.579188 6.6006e-006 -18.8682 6.95004e-005 -0.000259912 3.11023 0.271624 -0.000116403 16.338 1.60818e-006 -0.000129491 3.86925 -0.521976 0.000857892 10.6923 -0.00149714 -0.316083 4.60184 -0.161496 -1.61326e-006 179.125 0.690853 -11.2461 12.9064 -2.73698e-007 1.65695e-005 -3.44024 -0.167138 18.975 13.2844 -3.40408e-006 -4.82084e-006 -2.80222 5.77873 29.3361 13.0727 -8.35883e-006 -2.75594e-005 -1.27874 -0.891942 41.2252 14.418 -6.47218e-006 -2.37328e-005 -1.66626 -1.24335 30.4266 12.8946 1.08945e-007 1.40933e-005 0.372144 -1.21141 4.19035 11.6786 -1.41229e-006 1.48074e-005 -1.5162 2.17385 -21.8749 
5.04398e-029 4 0 0 0 -0 4.98225 -0.165661 1.13902e-007 4.37032 0.00278437 25.8449 14.6607 -5.89862e-007 -7.73337e-007 41.8486 -22.6141 -17.1105 14.1522 2.1691e-006 6.68751e-007 33.1067 14.2548 -27.4429 15.0911 1.96371e-006 2.85463e-006 -12.1024 -10.292 11.5948 10.9093 2.1838e-006 3.8158e-007 -50.4369 -3.64235 10.2689 4.24811 2.09363 2.31772 -84.6638 -18.9733 -81.0024 3.85902 1.95566 -1.62569 93.6395 -20.9524 92.4133 9.52285 -2.09439e-006 -2.49715e-007 -38.0381 2.23905 3.05316 1.06494 -0.579406 1.69995e-006 -18.848 -3.25214e-006 -2.45094e-005 3.11226 0.271816 8.07278e-005 15.634 -0.000126965 -0.000830964 3.88979 -0.521149 0.000677193 14.7408 -0.00255166 -0.305782 4.60224 -0.161509 1.01938e-007 179.126 0.688166 -11.2648 12.9082 2.26065e-007 -6.80012e-007 -3.50128 -0.172942 18.9752 13.2869 -4.05489e-007 -1.14826e-006 -2.79888 5.78118 29.3363 13.0759 1.22629e-007 6.26223e-007 -1.31546 -0.95297 41.6334 14.4221 9.79345e-008 -4.64227e-006 -1.67171 -1.31381 31.3079 12.8984 7.42913e-007 -2.07685e-006 0.419234 -1.14401 4.84843 11.6821 3.03908e-007 -3.37946e-006 -1.51211 2.2874 -21.9176 
5.04398e-029 4 0 0 0 -0 4.98225 -0.16566 -9.46928e-008 4.49048 -0.0596534 26.1087 14.6606 -2.56847e-007 -7.42799e-007 42.4611 -22.8818 -17.3156 14.1522 -1.7418e-006 1.85751e-006 33.5211 14.1294 -24.9751 15.0911 -8.21465e-007 5.39282e-006 -11.4619 -10.1733 9.40915 10.9093 7.71225e-009 2.89522e-006 -50.9532 -3.69964 9.73139 4.22793 2.15397 2.18435 -84.594 -18.4616 -82.5434 3.80782 2.00335 -1.49703 93.6846 -20.4173 90.9384 9.52284 -3.0265e-008 1.32995e-006 -38.7575 2.22326 3.0995 1.06494 -0.579401 1.20354e-006 -18.7856 1.42017e-005 -1.8117e-005 3.11294 0.27189 0.000283317 14.9862 6.89115e-005 0.000450837 3.90829 -0.520054 0.000534231 18.4639 -0.00305128 -0.297551 4.60224 -0.161509 -8.43061e-008 179.126 0.685551 -11.2828 12.9082 1.00467e-006 3.2768e-007 -3.56245 -0.178999 18.9749 13.2869 1.28794e-007 -1.0568e-007 -2.79391 5.78031 29.3353 13.0759 1.04877e-006 1.57667e-006 -1.35119 -1.01136 42.0356 14.422 1.04734e-006 -6.85249e-006 -1.67558 -1.38107 32.1762 12.8984 1.42494e-006 -1.40423e-006 0.465317 -1.07725 5.50451 11.6821 1.27291e-006 -8.34972e-007 -1.50644 2.40055 -21.961 
5.04398e-029 4 0 0 0 -0 4.98225 -0.16566 1.35604e-007 4.6095 -0.124353 26.3843 14.6607 3.49078e-007 -2.03934e-006 43.075 -23.1515 -17.5352 14.1522 1.34173e-007 1.70027e-006 33.9396 13.9574 -22.4891 15.0911 -1.809e-006 4.86973e-006 -10.8146 -10.0397 7.24408 10.9093 2.06469e-006 2.90063e-006 -51.4968 -3.75388 9.04722 4.20789 2.21389 2.05194 -84.536 -18.067 -83.4228 3.75699 2.05072 -1.36928 93.7293 -20.0058 90.1105 9.52285 -1.6959e-007 7.80395e-007 -39.5268 2.19736 3.17758 1.06494 -0.579403 6.24948e-007 -18.6806 7.33029e-006 8.82988e-006 3.11362 0.271962 0.000486065 14.4009 0.000208134 0.00177847 3.92663 -0.518975 0.000446535 21.8204 -0.00196594 -0.28991 4.60224 -0.161509 1.07956e-007 179.126 0.683469 -11.2976 12.9082 7.29491e-007 4.70842e-007 -3.62537 -0.185104 18.975 13.2869 -6.36814e-008 -1.3835e-007 -2.78921 5.77899 29.335 13.0759 4.15231e-007 1.55606e-006 -1.38668 -1.06674 42.4305 14.4221 -3.65476e-007 -7.10159e-006 -1.67838 -1.44568 33.0298 12.8984 1.38484e-007 -2.20472e-006 0.510287 -1.01183 6.15686 11.6821 -2.74441e-007 -1.04124e-006 -1.49834 2.51289 -22.0053 
